<svg xmlns="http://www.w3.org/2000/svg" width="512" height="408"><defs><linearGradient id="bs-logo-a" x1="76.079" x2="523.48" y1="10.798" y2="365.945" gradientUnits="userSpaceOnUse"><stop stop-color="#9013fe"/><stop offset="1" stop-color="#6610f2"/></linearGradient><linearGradient id="bs-logo-b" x1="193.508" x2="293.514" y1="109.74" y2="278.872" gradientUnits="userSpaceOnUse"><stop stop-color="#fff"/><stop offset="1" stop-color="#f1e5fc"/></linearGradient><filter xmlns="http://www.w3.org/2000/svg" id="bs-logo-c" width="197" height="249" x="161.901" y="83.457" color-interpolation-filters="sRGB" filterUnits="userSpaceOnUse"><feFlood flood-opacity="0" result="BackgroundImageFix"/><feColorMatrix in="SourceAlpha" values="0 0 0 0 0 0 0 0 0 0 0 0 0 0 0 0 0 0 127 0"/><feOffset dy="4"/><feGaussianBlur stdDeviation="8"/><feColorMatrix values="0 0 0 0 0 0 0 0 0 0 0 0 0 0 0 0 0 0 0.15 0"/><feBlend in2="BackgroundImageFix" result="effect1_dropShadow"/><feBlend in="SourceGraphic" in2="effect1_dropShadow" result="shape"/></filter></defs><path fill="url(#bs-logo-a)" d="M56.481 53.32C55.515 25.58 77.128 0 106.342 0h299.353c29.214 0 50.827 25.58 49.861 53.32-.928 26.647.277 61.165 8.964 89.31 8.715 28.232 23.411 46.077 47.48 48.37v26c-24.069 2.293-38.765 20.138-47.48 48.37-8.687 28.145-9.892 62.663-8.964 89.311.966 27.739-20.647 53.319-49.861 53.319H106.342c-29.214 0-50.827-25.58-49.86-53.319.927-26.648-.278-61.166-8.966-89.311C38.802 237.138 24.07 219.293 0 217v-26c24.069-2.293 38.802-20.138 47.516-48.37 8.688-28.145 9.893-62.663 8.965-89.31z"/><path fill="url(#bs-logo-b)" filter="url(#bs-logo-c)" stroke="#fff" d="M267.103 312.457c47.297 0 75.798-23.158 75.798-61.355 0-28.873-20.336-49.776-50.532-53.085v-1.203c22.185-3.609 39.594-24.211 39.594-47.219 0-32.783-25.882-54.138-65.322-54.138h-88.74v217h89.202zm-54.692-189.48h45.911c24.958 0 39.131 11.128 39.131 31.279 0 21.505-16.484 33.535-46.372 33.535h-38.67v-64.814zm0 161.961v-71.431h45.602c32.661 0 49.608 12.03 49.608 35.49 0 23.459-16.484 35.941-47.605 35.941h-47.605z"/></svg>
<svg id="icon" version="1.0" xmlns="http://www.w3.org/2000/svg"
 width="256.000000pt" height="256.000000pt" viewBox="0 0 256.000000 256.000000"
 preserveAspectRatio="xMidYMid meet">
<metadata>
Created by potrace 1.16, written by Peter Selinger 2001-2019
</metadata>
<g transform="translate(0.000000,256.000000) scale(0.100000,-0.100000)"
fill="#000000" stroke="none">
<path d="M0 1280 l0 -1280 1280 0 1280 0 0 1280 0 1280 -1280 0 -1280 0 0
-1280z m1251 537 l56 -27 69 27 c61 24 83 27 184 27 123 -1 171 -12 243 -60
37 -24 38 -25 65 -7 85 58 210 82 318 64 150 -26 237 -107 265 -247 33 -163
-69 -505 -205 -683 -22 -30 -69 -74 -103 -97 -142 -97 -359 -95 -484 6 l-37
30 -49 -33 c-75 -50 -153 -72 -258 -72 -80 0 -97 4 -158 32 l-68 32 -37 -19
c-49 -26 -146 -50 -199 -50 -58 0 -140 19 -187 42 -38 19 -38 19 -86 -1 -105
-45 -251 -46 -337 -2 -58 29 -109 91 -129 156 -16 50 -17 65 -5 142 21 146
107 381 210 570 77 142 153 193 291 193 86 0 133 -14 163 -48 l18 -20 57 29
c75 39 127 48 247 46 86 -2 108 -6 156 -30z"/>
<path d="M990 1780 c-77 -12 -124 -34 -176 -82 -38 -35 -44 -38 -49 -22 -22
72 -69 104 -150 104 -128 0 -185 -48 -274 -232 -144 -297 -200 -518 -157 -621
17 -41 74 -91 121 -107 81 -27 235 -1 305 51 12 9 27 4 68 -22 45 -28 64 -33
133 -37 102 -6 175 10 238 53 l50 33 22 -24 c99 -106 349 -83 473 44 l40 40
27 -43 c16 -25 48 -55 76 -72 45 -26 55 -28 163 -28 107 0 119 2 169 28 105
56 190 175 256 357 94 265 86 448 -24 528 -56 41 -115 55 -213 51 -69 -3 -94
-9 -149 -36 -35 -18 -75 -43 -88 -57 l-23 -24 -31 34 c-88 101 -283 119 -437
42 l-65 -33 -27 26 c-48 46 -166 67 -278 49z m177 -81 c67 -25 88 -71 58 -129
-22 -43 -68 -63 -158 -68 l-78 -5 -19 -38 c-11 -21 -20 -42 -20 -46 0 -5 27
-8 59 -8 44 0 65 -5 80 -19 40 -36 19 -115 -39 -150 -19 -11 -51 -16 -99 -16
-78 0 -82 -4 -98 -82 l-5 -28 74 6 c58 5 81 3 106 -10 57 -29 56 -113 -2 -164
-46 -40 -97 -56 -181 -57 -84 0 -147 30 -177 85 -32 58 -21 185 30 338 81 240
158 355 262 387 54 16 168 19 207 4z m520 -16 c54 -27 78 -65 77 -122 -3 -91
-47 -142 -127 -149 -70 -6 -89 11 -85 77 3 42 1 46 -21 49 -40 6 -68 -18 -105
-88 -45 -84 -107 -268 -109 -321 -2 -61 45 -79 97 -38 45 35 74 109 43 109
-28 0 -50 37 -43 73 22 115 240 135 261 23 14 -74 -30 -201 -103 -293 -73 -91
-216 -142 -322 -113 -58 16 -114 72 -130 130 -16 60 -1 159 45 298 59 175 131
293 208 341 83 51 236 63 314 24z m495 16 c87 -19 138 -89 138 -189 -1 -138
-110 -430 -199 -531 -59 -68 -117 -93 -216 -93 -187 0 -241 99 -181 336 33
130 99 295 144 359 72 103 185 145 314 118z m-1518 -15 c38 -37 14 -121 -111
-388 -45 -99 -83 -181 -83 -183 0 -1 20 -3 45 -3 53 0 92 -16 101 -42 9 -29
-4 -83 -27 -112 -64 -82 -253 -96 -314 -24 -48 57 -29 187 61 413 68 169 143
305 183 332 41 28 121 32 145 7z"/>
<path d="M2050 1520 c-27 -27 -63 -108 -111 -253 -46 -136 -49 -190 -11 -195
38 -6 69 34 111 142 46 118 91 260 91 285 0 42 -47 54 -80 21z"/>
</g>
</svg>